<svg width="20" height="20" viewBox="0 0 20 20" fill="none" xmlns="http://www.w3.org/2000/svg">
<g id="restart_alt_FILL0_wght400_GRAD0_opsz24 1">
<path id="Vector" d="M8.18754 17.25C6.75698 16.8472 5.59032 16.059 4.68754 14.8854C3.78476 13.7118 3.33337 12.3611 3.33337 10.8333C3.33337 10.0417 3.46532 9.28819 3.72921 8.57292C3.9931 7.85764 4.3681 7.20139 4.85421 6.60417C5.00699 6.4375 5.19449 6.35069 5.41671 6.34375C5.63893 6.33681 5.84032 6.42361 6.02087 6.60417C6.17365 6.75694 6.25351 6.94444 6.26046 7.16667C6.2674 7.38889 6.19448 7.59722 6.04171 7.79167C5.70837 8.22222 5.45143 8.69444 5.27087 9.20833C5.09032 9.72222 5.00004 10.2639 5.00004 10.8333C5.00004 11.9583 5.3299 12.9618 5.98962 13.8438C6.64935 14.7257 7.50004 15.3264 8.54171 15.6458C8.72226 15.7014 8.87157 15.8056 8.98962 15.9583C9.10768 16.1111 9.16671 16.2778 9.16671 16.4583C9.16671 16.7361 9.06948 16.9549 8.87504 17.1146C8.6806 17.2743 8.45143 17.3194 8.18754 17.25ZM11.8125 17.25C11.5487 17.3194 11.3195 17.2708 11.125 17.1042C10.9306 16.9375 10.8334 16.7153 10.8334 16.4375C10.8334 16.2708 10.8924 16.1111 11.0105 15.9583C11.1285 15.8056 11.2778 15.7014 11.4584 15.6458C12.5 15.3125 13.3507 14.7083 14.0105 13.8333C14.6702 12.9583 15 11.9583 15 10.8333C15 9.44444 14.5139 8.26389 13.5417 7.29167C12.5695 6.31944 11.3889 5.83333 10 5.83333H9.93754L10.2709 6.16667C10.4237 6.31944 10.5 6.51389 10.5 6.75C10.5 6.98611 10.4237 7.18056 10.2709 7.33333C10.1181 7.48611 9.92365 7.5625 9.68754 7.5625C9.45143 7.5625 9.25698 7.48611 9.10421 7.33333L7.35421 5.58333C7.27087 5.5 7.21185 5.40972 7.17712 5.3125C7.1424 5.21528 7.12504 5.11111 7.12504 5C7.12504 4.88889 7.1424 4.78472 7.17712 4.6875C7.21185 4.59028 7.27087 4.5 7.35421 4.41667L9.10421 2.66667C9.25698 2.51389 9.45143 2.4375 9.68754 2.4375C9.92365 2.4375 10.1181 2.51389 10.2709 2.66667C10.4237 2.81944 10.5 3.01389 10.5 3.25C10.5 3.48611 10.4237 3.68056 10.2709 3.83333L9.93754 4.16667H10C11.8612 4.16667 13.4375 4.8125 14.7292 6.10417C16.0209 7.39583 16.6667 8.97222 16.6667 10.8333C16.6667 12.3472 16.2153 13.6944 15.3125 14.875C14.4098 16.0556 13.2431 16.8472 11.8125 17.25Z" fill="#DDDDDD"/>
</g>
</svg>
