<svg width="20" height="20" viewBox="0 0 20 20" fill="none" xmlns="http://www.w3.org/2000/svg">
<g id="chevron_right_FILL0_wght400_GRAD0_opsz40">
<path id="Vector" d="M9.9862 9.13873L6.44454 12.6804C6.31037 12.8146 6.14836 12.8794 5.9585 12.8748C5.76863 12.8702 5.60662 12.8007 5.47245 12.6664C5.33815 12.5321 5.271 12.3678 5.271 12.1733C5.271 11.9789 5.33815 11.8146 5.47245 11.6804L9.50016 7.65248C9.57419 7.57845 9.65058 7.52637 9.72933 7.49623C9.80808 7.46623 9.8937 7.45123 9.9862 7.45123C10.0788 7.45123 10.1645 7.46623 10.2433 7.49623C10.3219 7.52637 10.3983 7.57845 10.4725 7.65248L14.5141 11.6941C14.6483 11.8285 14.7131 11.9905 14.7085 12.1804C14.7039 12.3701 14.6345 12.5321 14.5002 12.6664C14.3659 12.8007 14.2015 12.8679 14.007 12.8679C13.8126 12.8679 13.6483 12.8007 13.5141 12.6664L9.9862 9.13873Z" fill="#999999"/>
</g>
</svg>
